<svg width="100" height="100" viewBox="0 0 100 100" fill="none" xmlns="http://www.w3.org/2000/svg">
<path d="M50 22.2222C56.1365 22.2222 61.1111 17.2476 61.1111 11.1111C61.1111 4.97461 56.1365 0 50 0C43.8635 0 38.8889 4.97461 38.8889 11.1111C38.8889 17.2476 43.8635 22.2222 50 22.2222Z" fill="#FFBD1D"/>
<path d="M49.9998 41.6667C54.6022 41.6667 58.3332 37.9357 58.3332 33.3333C58.3332 28.731 54.6022 25 49.9998 25C45.3975 25 41.6665 28.731 41.6665 33.3333C41.6665 37.9357 45.3975 41.6667 49.9998 41.6667Z" fill="#2F4D33"/>
<path d="M26.389 19.445C30.2243 19.445 33.3335 15.714 33.3335 11.1117C33.3335 6.50928 30.2243 2.77832 26.389 2.77832C22.5537 2.77832 19.4446 6.50928 19.4446 11.1117C19.4446 15.714 22.5537 19.445 26.389 19.445Z" fill="#2F4D33"/>
<path d="M11.1112 36.1112C15.7135 36.1112 19.4445 32.3803 19.4445 27.7779C19.4445 23.1755 15.7135 19.4446 11.1112 19.4446C6.50879 19.4446 2.77783 23.1755 2.77783 27.7779C2.77783 32.3803 6.50879 36.1112 11.1112 36.1112Z" fill="#2F4D33"/>
<path d="M88.889 36.1112C93.4914 36.1112 97.2223 32.3803 97.2223 27.7779C97.2223 23.1755 93.4914 19.4446 88.889 19.4446C84.2866 19.4446 80.5557 23.1755 80.5557 27.7779C80.5557 32.3803 84.2866 36.1112 88.889 36.1112Z" fill="#2F4D33"/>
<path d="M88.8888 16.6665C91.9571 16.6665 94.4444 14.1792 94.4444 11.111C94.4444 8.04273 91.9571 5.55542 88.8888 5.55542C85.8206 5.55542 83.3333 8.04273 83.3333 11.111C83.3333 14.1792 85.8206 16.6665 88.8888 16.6665Z" fill="#2F4D33"/>
<path d="M88.8888 94.4449C91.9571 94.4449 94.4444 91.9575 94.4444 88.8893C94.4444 85.821 91.9571 83.3337 88.8888 83.3337C85.8206 83.3337 83.3333 85.821 83.3333 88.8893C83.3333 91.9575 85.8206 94.4449 88.8888 94.4449Z" fill="#2F4D33"/>
<path d="M11.111 16.6665C14.1792 16.6665 16.6665 14.1792 16.6665 11.111C16.6665 8.04273 14.1792 5.55542 11.111 5.55542C8.04273 5.55542 5.55542 8.04273 5.55542 11.111C5.55542 14.1792 8.04273 16.6665 11.111 16.6665Z" fill="#2F4D33"/>
<path d="M29.1667 36.1111C31.4679 36.1111 33.3333 33.6238 33.3333 30.5556C33.3333 27.4873 31.4679 25 29.1667 25C26.8655 25 25 27.4873 25 30.5556C25 33.6238 26.8655 36.1111 29.1667 36.1111Z" fill="#2F4D33"/>
<path d="M29.1667 75.0003C31.4679 75.0003 33.3333 72.513 33.3333 69.4447C33.3333 66.3765 31.4679 63.8892 29.1667 63.8892C26.8655 63.8892 25 66.3765 25 69.4447C25 72.513 26.8655 75.0003 29.1667 75.0003Z" fill="#2F4D33"/>
<path d="M49.9999 55.5557C53.0681 55.5557 55.5554 53.0684 55.5554 50.0001C55.5554 46.9319 53.0681 44.4446 49.9999 44.4446C46.9316 44.4446 44.4443 46.9319 44.4443 50.0001C44.4443 53.0684 46.9316 55.5557 49.9999 55.5557Z" fill="#2F4D33"/>
<path d="M69.4445 36.1111C72.5127 36.1111 75 33.6238 75 30.5556C75 27.4873 72.5127 25 69.4445 25C66.3762 25 63.8889 27.4873 63.8889 30.5556C63.8889 33.6238 66.3762 36.1111 69.4445 36.1111Z" fill="#2F4D33"/>
<path d="M69.4445 75.0003C72.5127 75.0003 75 72.513 75 69.4447C75 66.3765 72.5127 63.8892 69.4445 63.8892C66.3762 63.8892 63.8889 66.3765 63.8889 69.4447C63.8889 72.513 66.3762 75.0003 69.4445 75.0003Z" fill="#2F4D33"/>
<path d="M11.111 94.4449C14.1792 94.4449 16.6665 91.9575 16.6665 88.8893C16.6665 85.821 14.1792 83.3337 11.111 83.3337C8.04273 83.3337 5.55542 85.821 5.55542 88.8893C5.55542 91.9575 8.04273 94.4449 11.111 94.4449Z" fill="#2F4D33"/>
<path d="M11.1112 80.5558C15.7135 80.5558 19.4445 76.8249 19.4445 72.2225C19.4445 67.6201 15.7135 63.8892 11.1112 63.8892C6.50879 63.8892 2.77783 67.6201 2.77783 72.2225C2.77783 76.8249 6.50879 80.5558 11.1112 80.5558Z" fill="#2F4D33"/>
<path d="M88.889 80.5558C93.4914 80.5558 97.2223 76.8249 97.2223 72.2225C97.2223 67.6201 93.4914 63.8892 88.889 63.8892C84.2866 63.8892 80.5557 67.6201 80.5557 72.2225C80.5557 76.8249 84.2866 80.5558 88.889 80.5558Z" fill="#2F4D33"/>
<path d="M26.389 97.2228C30.2243 97.2228 33.3335 93.4919 33.3335 88.8895C33.3335 84.2871 30.2243 80.5562 26.389 80.5562C22.5537 80.5562 19.4446 84.2871 19.4446 88.8895C19.4446 93.4919 22.5537 97.2228 26.389 97.2228Z" fill="#2F4D33"/>
<path d="M72.2222 19.445C76.8246 19.445 80.5556 15.714 80.5556 11.1117C80.5556 6.50928 76.8246 2.77832 72.2222 2.77832C67.6199 2.77832 63.8889 6.50928 63.8889 11.1117C63.8889 15.714 67.6199 19.445 72.2222 19.445Z" fill="#2F4D33"/>
<path d="M72.2222 97.2228C76.8246 97.2228 80.5556 93.4919 80.5556 88.8895C80.5556 84.2871 76.8246 80.5562 72.2222 80.5562C67.6199 80.5562 63.8889 84.2871 63.8889 88.8895C63.8889 93.4919 67.6199 97.2228 72.2222 97.2228Z" fill="#2F4D33"/>
<path d="M33.3333 58.3337C37.9357 58.3337 41.6667 54.6027 41.6667 50.0003C41.6667 45.398 37.9357 41.667 33.3333 41.667C28.731 41.667 25 45.398 25 50.0003C25 54.6027 28.731 58.3337 33.3333 58.3337Z" fill="#2F4D33"/>
<path d="M66.6668 58.3337C71.2692 58.3337 75.0002 54.6027 75.0002 50.0003C75.0002 45.398 71.2692 41.667 66.6668 41.667C62.0645 41.667 58.3335 45.398 58.3335 50.0003C58.3335 54.6027 62.0645 58.3337 66.6668 58.3337Z" fill="#2F4D33"/>
<path d="M49.9998 75.0004C54.6022 75.0004 58.3332 71.2694 58.3332 66.6671C58.3332 62.0647 54.6022 58.3337 49.9998 58.3337C45.3975 58.3337 41.6665 62.0647 41.6665 66.6671C41.6665 71.2694 45.3975 75.0004 49.9998 75.0004Z" fill="#2F4D33"/>
<path d="M50 100C56.1365 100 61.1111 95.0254 61.1111 88.8889C61.1111 82.7524 56.1365 77.7778 50 77.7778C43.8635 77.7778 38.8889 82.7524 38.8889 88.8889C38.8889 95.0254 43.8635 100 50 100Z" fill="#FFBD1D"/>
<path d="M11.1111 61.1114C17.2476 61.1114 22.2222 56.1368 22.2222 50.0003C22.2222 43.8638 17.2476 38.8892 11.1111 38.8892C4.97461 38.8892 0 43.8638 0 50.0003C0 56.1368 4.97461 61.1114 11.1111 61.1114Z" fill="#FFBD1D"/>
<path d="M88.8889 61.1114C95.0254 61.1114 100 56.1368 100 50.0003C100 43.8638 95.0254 38.8892 88.8889 38.8892C82.7524 38.8892 77.7778 43.8638 77.7778 50.0003C77.7778 56.1368 82.7524 61.1114 88.8889 61.1114Z" fill="#FFBD1D"/>
</svg>
